<svg xmlns="http://www.w3.org/2000/svg" width="10" height="10" fill="none">
  <g clip-path="url(#a)">
    <path stroke="#64748B" stroke-linecap="round" stroke-linejoin="round" stroke-width=".75" d="M2.813 1.25v.938m4.374-.938v.938M1.25 7.813V3.125a.938.938 0 0 1 .938-.937h5.624a.938.938 0 0 1 .938.937v4.688m-7.5 0a.937.937 0 0 0 .938.937h5.624a.938.938 0 0 0 .938-.937m-7.5 0V4.688a.938.938 0 0 1 .938-.938h5.624a.938.938 0 0 1 .938.938v3.125M5 5.313h.003v.003H5v-.003Zm0 .937h.003v.003H5V6.25Zm0 .938h.003v.003H5v-.003Zm-.938-.938h.004v.003h-.003V6.25Zm0 .938h.004v.003h-.003v-.003Zm-.937-.938h.003v.003h-.003V6.25Zm0 .938h.003v.003h-.003v-.003Zm2.813-1.875h.003v.003h-.003v-.003Zm0 .937h.003v.003h-.003V6.25Zm0 .938h.003v.003h-.003v-.003Zm.937-1.875h.003v.003h-.003v-.003Zm0 .937h.003v.003h-.003V6.25Z"/>
  </g>
  <defs>
    <clipPath id="a">
      <path fill="#fff" d="M0 0h10v10H0z"/>
    </clipPath>
  </defs>
</svg>