<svg xmlns="http://www.w3.org/2000/svg" width="8" height="9" fill="none">
  <g clip-path="url(#a)">
    <path fill="#222" d="M4 .599a4 4 0 0 0-1.265 7.795c.2.038.273-.086.273-.192l-.005-.68c-1.112.241-1.347-.537-1.347-.537-.182-.462-.445-.585-.445-.585-.362-.248.028-.243.028-.243.402.028.613.412.613.412.356.612.936.435 1.165.333.036-.259.139-.435.253-.535-.888-.1-1.822-.444-1.822-1.977 0-.437.155-.793.412-1.073-.045-.101-.18-.508.035-1.059 0 0 .335-.107 1.1.41.32-.089.66-.133 1-.135.34.002.68.046 1 .135.76-.517 1.095-.41 1.095-.41.215.551.08.958.04 1.059.255.28.41.636.41 1.073 0 1.537-.935 1.875-1.825 1.973.14.12.27.366.27.74 0 .536-.005.966-.005 1.096 0 .105.07.23.275.19A3.986 3.986 0 0 0 8 4.599a4 4 0 0 0-4-4Z"/>
  </g>
  <defs>
    <clipPath id="a">
      <path fill="#fff" d="M0 .5h8v8H0z"/>
    </clipPath>
  </defs>
</svg>