<svg xmlns="http://www.w3.org/2000/svg" width="8" height="9" fill="none">
  <g clip-path="url(#a)">
    <path fill="#0A66C2" d="M6.816 7.317H5.63V5.461c0-.443-.009-1.012-.617-1.012-.618 0-.712.481-.712.98v1.888H3.117V3.5h1.138v.52h.015c.16-.3.546-.616 1.124-.616 1.2 0 1.422.79 1.422 1.818v2.095Zm-5.037-4.34a.687.687 0 1 1 0-1.374.687.687 0 0 1 0 1.375Zm.594 4.34H1.185V3.5h1.188v3.817ZM7.408.5H.59a.583.583 0 0 0-.59.576v6.848c0 .318.264.576.59.576h6.817A.585.585 0 0 0 8 7.924V1.076A.585.585 0 0 0 7.407.5h.001Z"/>
  </g>
  <defs>
    <clipPath id="a">
      <path fill="#fff" d="M0 .5h8v8H0z"/>
    </clipPath>
  </defs>
</svg>